<?xml version="1.0" encoding="UTF-8"?>
<svg id="Capa_1" data-name="Capa 1" xmlns="http://www.w3.org/2000/svg" xmlns:xlink="http://www.w3.org/1999/xlink" viewBox="0 0 150 165">
  <defs>
    <linearGradient id="Degradado_sin_nombre_9" data-name="Degradado sin nombre 9" x1="31.96" y1="48.27" x2="35.06" y2="45.17" gradientUnits="userSpaceOnUse">
      <stop offset="0" stop-color="#f28b00"/>
      <stop offset="1" stop-color="#f26d21"/>
    </linearGradient>
    <linearGradient id="Degradado_sin_nombre_9-2" data-name="Degradado sin nombre 9" x1="-915.41" y1="1534.84" x2="-913.67" y2="1533.1" gradientTransform="translate(1561.9 954.65) rotate(90)" xlink:href="#Degradado_sin_nombre_9"/>
    <linearGradient id="Degradado_sin_nombre_9-3" data-name="Degradado sin nombre 9" x1="13.71" y1="55.07" x2="29.44" y2="39.34" xlink:href="#Degradado_sin_nombre_9"/>
    <linearGradient id="Degradado_sin_nombre_9-4" data-name="Degradado sin nombre 9" x1="21.79" y1="43.54" x2="24.7" y2="40.63" xlink:href="#Degradado_sin_nombre_9"/>
    <linearGradient id="Degradado_sin_nombre_9-5" data-name="Degradado sin nombre 9" x1="22.12" y1="44.85" x2="43.78" y2="23.19" xlink:href="#Degradado_sin_nombre_9"/>
    <linearGradient id="Degradado_sin_nombre_9-6" data-name="Degradado sin nombre 9" x1="29.55" y1="32.34" x2="45.17" y2="16.72" xlink:href="#Degradado_sin_nombre_9"/>
    <linearGradient id="Degradado_sin_nombre_9-7" data-name="Degradado sin nombre 9" x1="21.4" y1="53.89" x2="37.17" y2="38.12" xlink:href="#Degradado_sin_nombre_9"/>
  </defs>
  <rect x=".5" y=".5" width="149" height="164" rx="7.5" ry="7.5" fill="#fff"/>
  <rect x=".5" y=".5" width="149" height="164" rx="7.5" ry="7.5" fill="none" stroke="#f3e9dc"/>
  <path d="M25.48,87l-.93-3.06h-4.68l-.93,3.06h-2.94l4.54-12.9h3.33l4.55,12.9h-2.94ZM23.9,81.66c-.86-2.77-1.35-4.34-1.46-4.7-.11-.36-.18-.65-.23-.86-.19.75-.75,2.6-1.66,5.56h3.35ZM32.17,87l-3.74-9.83h2.8l1.9,5.6c.21.71.34,1.38.4,2.01h.05c.03-.56.16-1.23.4-2.01l1.89-5.6h2.8l-3.74,9.83h-2.75ZM46.32,87l-.52-1.34h-.07c-.45.57-.92.96-1.4,1.19-.47.22-1.1.33-1.86.33-.94,0-1.69-.27-2.23-.81-.54-.54-.81-1.31-.81-2.3s.36-1.81,1.09-2.3c.73-.5,1.83-.77,3.3-.83l1.71-.05v-.43c0-1-.51-1.49-1.53-1.49-.79,0-1.71.24-2.77.71l-.89-1.81c1.13-.59,2.38-.89,3.76-.89s2.33.29,3.03.86c.7.57,1.05,1.45,1.05,2.62v6.55h-1.87ZM45.53,82.45l-1.04.04c-.78.02-1.36.16-1.74.42-.38.26-.57.65-.57,1.18,0,.76.43,1.13,1.3,1.13.62,0,1.12-.18,1.49-.54.38-.36.56-.83.56-1.42v-.81ZM60.03,87h-2.68v-5.74c0-.71-.13-1.24-.38-1.59-.25-.36-.65-.54-1.2-.54-.75,0-1.29.25-1.63.76-.33.5-.5,1.33-.5,2.49v4.62h-2.68v-9.83h2.05l.36,1.26h.15c.3-.47.71-.83,1.23-1.07.53-.25,1.12-.37,1.79-.37,1.14,0,2.01.31,2.6.93.59.62.89,1.51.89,2.67v6.41ZM66.78,87.18c-3.06,0-4.59-1.68-4.59-5.04,0-1.67.42-2.94,1.25-3.82.83-.88,2.02-1.33,3.58-1.33,1.14,0,2.16.22,3.06.67l-.79,2.07c-.42-.17-.81-.31-1.18-.41-.36-.11-.73-.17-1.09-.17-1.39,0-2.09.99-2.09,2.97s.7,2.88,2.09,2.88c.52,0,.99-.07,1.43-.2.44-.14.88-.36,1.32-.65v2.29c-.43.28-.87.47-1.32.57-.44.11-1,.16-1.67.16ZM76.13,78.9c-.57,0-1.01.18-1.34.54-.32.36-.51.87-.55,1.53h3.76c-.01-.66-.18-1.17-.52-1.53-.33-.36-.79-.54-1.35-.54ZM76.5,87.18c-1.58,0-2.82-.44-3.71-1.31-.89-.87-1.34-2.11-1.34-3.71s.41-2.92,1.23-3.81c.83-.9,1.97-1.35,3.42-1.35s2.47.4,3.24,1.19c.77.79,1.16,1.88,1.16,3.28v1.3h-6.34c.03.76.25,1.36.68,1.78.42.43,1.01.64,1.78.64.59,0,1.15-.06,1.68-.18.53-.12,1.08-.32,1.65-.59v2.07c-.47.23-.97.41-1.5.52-.53.12-1.18.18-1.95.18ZM90.48,87.18c-1.15,0-2.06-.45-2.72-1.34-.66-.9-.98-2.14-.98-3.73s.33-2.87,1-3.76c.67-.9,1.6-1.35,2.78-1.35,1.24,0,2.18.48,2.83,1.44h.09c-.13-.73-.2-1.39-.2-1.96v-3.15h2.69v13.68h-2.06l-.52-1.27h-.11c-.61.97-1.54,1.45-2.79,1.45ZM91.42,85.04c.69,0,1.19-.2,1.5-.6.32-.4.5-1.08.53-2.03v-.29c0-1.05-.16-1.81-.49-2.27-.32-.46-.85-.69-1.58-.69-.6,0-1.06.25-1.4.76-.33.5-.49,1.24-.49,2.21s.17,1.69.5,2.18c.33.48.81.72,1.43.72ZM102.83,78.9c-.57,0-1.01.18-1.34.54-.32.36-.51.87-.55,1.53h3.76c-.01-.66-.18-1.17-.52-1.53-.33-.36-.78-.54-1.35-.54ZM103.21,87.18c-1.58,0-2.82-.44-3.71-1.31-.89-.87-1.34-2.11-1.34-3.71s.41-2.92,1.23-3.81c.83-.9,1.97-1.35,3.42-1.35s2.47.4,3.24,1.19c.77.79,1.16,1.88,1.16,3.28v1.3h-6.34c.03.76.25,1.36.68,1.78.42.43,1.01.64,1.78.64.59,0,1.15-.06,1.68-.18.53-.12,1.08-.32,1.65-.59v2.07c-.47.23-.97.41-1.5.52-.53.12-1.18.18-1.95.18ZM25.02,110h-7.4v-12.85h7.4v2.23h-4.68v2.82h4.35v2.23h-4.35v3.31h4.68v2.25ZM32.93,102.19h-2.32v7.81h-2.68v-7.81h-1.48v-1.29l1.48-.72v-.72c0-1.12.28-1.94.83-2.45.55-.52,1.43-.77,2.65-.77.93,0,1.75.14,2.47.41l-.69,1.97c-.54-.17-1.04-.25-1.49-.25-.38,0-.66.11-.83.34-.17.22-.25.51-.25.86v.62h2.32v2.01ZM38.54,101.9c-.57,0-1.01.18-1.34.54-.32.36-.51.87-.55,1.53h3.76c-.01-.66-.18-1.17-.52-1.53-.33-.36-.79-.54-1.35-.54ZM38.92,110.18c-1.58,0-2.82-.44-3.71-1.31-.89-.87-1.34-2.11-1.34-3.71s.41-2.92,1.23-3.81c.83-.9,1.97-1.35,3.42-1.35s2.47.4,3.24,1.19c.77.79,1.16,1.88,1.16,3.28v1.3h-6.34c.03.76.25,1.36.68,1.78.42.43,1.01.64,1.78.64.59,0,1.15-.06,1.68-.18.53-.12,1.08-.32,1.65-.59v2.07c-.47.24-.97.41-1.5.52-.53.12-1.18.18-1.95.18ZM49.1,110.18c-3.06,0-4.59-1.68-4.59-5.04,0-1.67.42-2.94,1.25-3.82.83-.88,2.02-1.33,3.58-1.33,1.14,0,2.16.22,3.06.67l-.79,2.07c-.42-.17-.81-.31-1.18-.41-.36-.11-.73-.17-1.09-.17-1.39,0-2.09.99-2.09,2.97s.7,2.88,2.09,2.88c.52,0,.99-.07,1.43-.2.44-.14.88-.36,1.32-.65v2.29c-.43.28-.87.47-1.32.57-.44.11-1,.16-1.67.16ZM58.51,108.04c.47,0,1.03-.1,1.69-.31v2c-.67.3-1.49.45-2.46.45-1.07,0-1.85-.27-2.35-.81-.49-.54-.73-1.36-.73-2.44v-4.74h-1.28v-1.13l1.48-.9.77-2.07h1.71v2.09h2.75v2.01h-2.75v4.74c0,.38.11.66.32.84.22.18.5.27.85.27ZM62.08,97.63c0-.87.49-1.31,1.46-1.31s1.46.44,1.46,1.31c0,.42-.12.74-.37.98-.24.23-.6.34-1.09.34-.97,0-1.46-.44-1.46-1.32ZM64.88,110h-2.68v-9.83h2.68v9.83ZM70.04,110l-3.74-9.83h2.8l1.9,5.6c.21.71.34,1.38.4,2.01h.05c.03-.56.16-1.23.4-2.01l1.89-5.6h2.8l-3.74,9.83h-2.75ZM80.08,105.07c0,.97.16,1.71.47,2.21.32.5.84.75,1.56.75s1.23-.25,1.54-.74c.32-.5.47-1.24.47-2.21s-.16-1.7-.47-2.19c-.32-.49-.84-.73-1.56-.73s-1.23.24-1.55.73c-.32.48-.47,1.21-.47,2.19ZM86.88,105.07c0,1.6-.42,2.85-1.27,3.75-.84.9-2.02,1.35-3.52,1.35-.94,0-1.78-.21-2.5-.62-.72-.42-1.27-1.01-1.66-1.78-.39-.77-.58-1.68-.58-2.71,0-1.61.42-2.85,1.26-3.74.84-.89,2.02-1.34,3.53-1.34.94,0,1.78.2,2.5.61.72.41,1.27,1,1.66,1.77.39.77.58,1.67.58,2.7Z" fill="#0f1014"/>
  <g>
    <path d="M33.81,48.97c-.61,0-1.16-.17-1.62-.51-1.11-.81-1.3-2.28-1.31-2.34-.04-.37.22-.71.59-.75.37-.04.71.22.75.59,0,0,.13.96.77,1.42.33.24.75.3,1.29.2.35-.07.38-.86.35-1.14-.04-.37.23-.7.6-.74.37-.04.7.23.74.6.09.85-.11,2.35-1.44,2.61-.25.05-.49.07-.72.07Z" fill="url(#Degradado_sin_nombre_9)"/>
    <path d="M27.93,41.69c-.21,0-.39-.17-.39-.39v-2.38c0-.21.17-.39.39-.39s.39.17.39.39v2.38c0,.21-.17.39-.39.39Z" fill="url(#Degradado_sin_nombre_9-2)"/>
    <path d="M19.42,60.49c-.07,0-.14-.01-.21-.04-.35-.12-.54-.5-.42-.85.27-.79.67-2.28.62-2.91-.03-.38-.44-1.77-.84-3.12-.55-1.86-1.23-4.18-1.59-5.99-.6-3.02-.2-5.71,1.11-7.39,1.14-1.46,4.99-5.87,5.16-6.06.24-.28.67-.31.95-.06.28.25.31.67.06.95-.04.05-3.99,4.56-5.11,6-.5.65-1.6,2.56-.85,6.29.35,1.75,1.02,4.04,1.56,5.87.54,1.83.85,2.9.89,3.39.09,1.1-.6,3.21-.68,3.45-.09.28-.36.46-.64.46Z" fill="url(#Degradado_sin_nombre_9-3)"/>
    <path d="M22.43,43.9c-.14,0-.27-.04-.39-.13-.3-.22-.37-.64-.16-.94l1.63-2.28c.22-.3.64-.37.94-.16.3.22.37.64.16.94l-1.63,2.28c-.13.18-.34.28-.55.28Z" fill="url(#Degradado_sin_nombre_9-4)"/>
    <rect x="18.17" y="16" width="31.26" height="11.02" fill="#ffe9d4"/>
    <path d="M40.32,46.72h-16.04c-.37,0-.67-.3-.67-.67v-22.76c0-.37.3-.67.67-.67h18.65c.37,0,.67.3.67.67s-.3.67-.67.67h-17.97v21.41h15.37c.37,0,.67.3.67.67s-.3.67-.67.67Z" fill="url(#Degradado_sin_nombre_9-5)"/>
    <path d="M42.16,42.74c-.37,0-.67-.3-.67-.67v-14.23c0-.37.3-.67.67-.67h3.28v-7.86s-23.84,0-23.84,0v3.46c0,.37-.3.67-.68.67h0c-.37,0-.67-.3-.67-.67v-4.13c0-.37.3-.67.68-.67h25.19c.18,0,.35.07.48.2.13.13.2.3.2.48v9.21c0,.37-.3.67-.68.67h-3.28v13.56c0,.37-.3.67-.67.67Z" fill="url(#Degradado_sin_nombre_9-6)"/>
    <g>
      <ellipse cx="33.75" cy="33.41" rx="5.82" ry="5.71" fill="#ffe9d4"/>
      <path d="M30.44,30.24c-.5.5-.87,1.1-1.1,1.77-.06.19.07.43.26.5.31.12.56-.08.62-.27.19-.56.49-1.07.92-1.48,1.25-1.22,3.82-1.15,5.1.05.72.67,1.13,1.53,1.17,2.46h-1.05s.09.01.07.03c-.15-.86-.77-1.31-1.43-1.31-.75,0-1.19.44-1.55,1.31-.3.74-.52,1.05-.96,1.05-.34,0-.73-.25-.73-.9,0-.54.19-.89.29-1.07l-.56-.21c-.14.24-.26.5-.28.97h-1.35s-.18.01-.29.01c-.01,0-.02,0-.03,0,0,0-.02,0-.03,0-.17.06-.23.14-.28.3-.01.03-.02.06-.02.09,0,0,0,.01,0,.02,0,1.13.5,2.3,1.33,3.13,1.77,1.77,4.66,1.77,6.43,0,.41-.41.74-.9.97-1.43.02-.05.03-.1.03-.15,0-.14-.08-.28-.23-.34-.19-.08-.46-.13-.65.19-.29.49-.4.61-.79,1.04-1.27,1.36-3.7,1.4-5.07.09-.63-.6-.95-1.37-1.04-2.19h1.08c.16.71.67,1.16,1.33,1.16.74,0,1.12-.53,1.46-1.4.25-.63.54-.96,1.01-.96s.83.41.83,1.01c0,.47-.16.91-.36,1.22l.57.2c.2-.27.34-.73.37-1.19.02,0-.12.01-.09.01h.7s.62,0,.84,0c.19-.02.34-.12.37-.35.01-.07,0-.14,0-.21,0-1.18-.48-2.25-1.33-3.14-1.62-1.69-4.73-1.8-6.51-.03Z"/>
    </g>
    <g>
      <path d="M23.65,46.81c.85-2.26,2.93-6.79,3.5-8.88.73-2.69.34-4.2,1.47-5.05s2.39-.55,3.09,1.14.42,5.22-.57,7.9c-.99,2.68-1.14,4.24-.57,5.93,0,0,1.83,3.47,1.06,6.6-.69,2.81-2.85,4.42-2.85,5.88" fill="#fff"/>
      <path d="M28.79,61c-.37,0-.67-.3-.67-.67,0-.9.55-1.73,1.19-2.68.63-.94,1.35-2.01,1.68-3.36.7-2.84-.98-6.09-1-6.12-.02-.03-.03-.06-.04-.1-.62-1.86-.47-3.52.58-6.38.95-2.58,1.21-5.9.58-7.41-.27-.64-.63-1.05-1.02-1.15-.4-.11-.79.1-1.05.29-.46.35-.55.88-.72,2.05-.1.71-.22,1.59-.5,2.64-.37,1.36-1.36,3.72-2.24,5.79-.5,1.2-.98,2.33-1.29,3.14-.13.35-.52.53-.87.4-.35-.13-.53-.52-.4-.87.32-.84.8-1.98,1.31-3.19.86-2.04,1.83-4.35,2.18-5.62.26-.96.37-1.76.47-2.47.17-1.26.31-2.25,1.24-2.95.71-.53,1.49-.71,2.21-.52.57.15,1.36.62,1.91,1.94.75,1.81.51,5.5-.56,8.39-.92,2.5-1.07,3.93-.58,5.43.24.48,1.87,3.86,1.09,7.02-.39,1.59-1.21,2.81-1.87,3.79-.52.77-.96,1.43-.96,1.93,0,.37-.3.67-.67.67Z" fill="url(#Degradado_sin_nombre_9-7)"/>
    </g>
  </g>
</svg>