<?xml version="1.0" encoding="UTF-8"?>
<svg id="Capa_1" data-name="Capa 1" xmlns="http://www.w3.org/2000/svg" xmlns:xlink="http://www.w3.org/1999/xlink" viewBox="0 0 150 165">
  <defs>
    <linearGradient id="Degradado_sin_nombre_9" data-name="Degradado sin nombre 9" x1="31.41" y1="28.18" x2="41.76" y2="17.83" gradientUnits="userSpaceOnUse">
      <stop offset="0" stop-color="#f28b00"/>
      <stop offset="1" stop-color="#f26d21"/>
    </linearGradient>
    <linearGradient id="Degradado_sin_nombre_9-2" data-name="Degradado sin nombre 9" x1="31.41" y1="33.06" x2="41.76" y2="22.71" xlink:href="#Degradado_sin_nombre_9"/>
    <linearGradient id="Degradado_sin_nombre_9-3" data-name="Degradado sin nombre 9" y1="37.94" y2="27.6" xlink:href="#Degradado_sin_nombre_9"/>
    <linearGradient id="Degradado_sin_nombre_9-4" data-name="Degradado sin nombre 9" y1="42.83" x2="41.76" y2="32.48" xlink:href="#Degradado_sin_nombre_9"/>
    <linearGradient id="Degradado_sin_nombre_9-5" data-name="Degradado sin nombre 9" x1="38.55" y1="45.46" x2="44.4" y2="39.62" xlink:href="#Degradado_sin_nombre_9"/>
    <linearGradient id="Degradado_sin_nombre_9-6" data-name="Degradado sin nombre 9" x1="38.55" y1="50.34" x2="44.4" y2="44.5" xlink:href="#Degradado_sin_nombre_9"/>
    <linearGradient id="Degradado_sin_nombre_9-7" data-name="Degradado sin nombre 9" x1="21.47" y1="37.09" x2="51.54" y2="37.09" xlink:href="#Degradado_sin_nombre_9"/>
  </defs>
  <rect width="150" height="165" rx="8" ry="8" fill="#fff"/>
  <rect x=".5" y=".5" width="149" height="164" rx="7.5" ry="7.5" fill="none" stroke="rgba(243, 233, 220, .68)"/>
  <path d="M87.12,100.84c0,.97.16,1.71.47,2.21.32.5.84.75,1.56.75s1.23-.25,1.54-.74c.32-.5.47-1.24.47-2.21s-.16-1.7-.47-2.19c-.32-.49-.84-.73-1.56-.73s-1.23.24-1.55.73c-.32.48-.47,1.21-.47,2.19ZM93.91,100.84c0,1.6-.42,2.85-1.27,3.75-.84.9-2.02,1.35-3.52,1.35-.94,0-1.78-.21-2.5-.61-.72-.42-1.27-1.01-1.66-1.78-.39-.77-.58-1.68-.58-2.71,0-1.61.42-2.85,1.26-3.74.84-.89,2.02-1.34,3.53-1.34.94,0,1.78.21,2.5.62.72.41,1.27,1,1.66,1.77.39.77.58,1.67.58,2.7Z" fill="#0f1014"/>
  <path d="M79.37,93.41c0-.87.49-1.31,1.46-1.31s1.46.44,1.46,1.31c0,.42-.12.74-.37.98-.24.23-.6.34-1.09.34-.97,0-1.46-.44-1.46-1.32ZM82.16,105.77h-2.68v-9.83h2.68v9.83Z" fill="#0f1014"/>
  <path d="M76.79,95.76c.36,0,.67.03.91.08l-.2,2.51c-.22-.06-.48-.09-.79-.09-.86,0-1.52.22-2,.66-.47.44-.71,1.05-.71,1.85v5h-2.68v-9.83h2.03l.4,1.65h.13c.3-.55.71-.99,1.23-1.33.52-.34,1.09-.51,1.7-.51Z" fill="#0f1014"/>
  <path d="M66.67,105.77l-.52-1.34h-.07c-.45.57-.92.96-1.4,1.19-.47.22-1.1.32-1.86.32-.94,0-1.69-.27-2.23-.81-.54-.54-.81-1.31-.81-2.3s.36-1.81,1.09-2.3c.73-.5,1.83-.77,3.3-.83l1.71-.05v-.43c0-1-.51-1.49-1.53-1.49-.79,0-1.71.24-2.77.71l-.89-1.81c1.13-.59,2.38-.89,3.76-.89s2.33.29,3.03.86c.7.57,1.05,1.45,1.05,2.62v6.55h-1.87ZM65.88,101.22l-1.04.03c-.78.02-1.36.16-1.74.42-.38.26-.57.65-.57,1.18,0,.76.43,1.13,1.3,1.13.62,0,1.12-.18,1.49-.54.38-.36.56-.83.56-1.42v-.81Z" fill="#0f1014"/>
  <path d="M55.15,105.95c-3.06,0-4.59-1.68-4.59-5.04,0-1.67.42-2.94,1.25-3.82.83-.88,2.02-1.33,3.58-1.33,1.14,0,2.16.22,3.06.67l-.79,2.07c-.42-.17-.81-.31-1.18-.41-.36-.11-.73-.17-1.09-.17-1.39,0-2.09.99-2.09,2.97s.7,2.88,2.09,2.88c.52,0,.99-.07,1.43-.2.44-.14.88-.36,1.32-.65v2.29c-.43.28-.87.47-1.32.57-.44.11-1,.16-1.67.16Z" fill="#0f1014"/>
  <path d="M48.41,105.77h-2.68v-5.74c0-.71-.13-1.24-.38-1.59-.25-.36-.65-.54-1.2-.54-.75,0-1.29.25-1.63.76-.33.5-.5,1.33-.5,2.49v4.62h-2.68v-9.83h2.05l.36,1.26h.15c.3-.47.71-.83,1.23-1.07.53-.25,1.12-.37,1.79-.37,1.14,0,2.01.31,2.6.93.59.62.89,1.51.89,2.67v6.41Z" fill="#0f1014"/>
  <path d="M34.7,105.77l-.52-1.34h-.07c-.45.57-.92.96-1.4,1.19-.47.22-1.1.32-1.86.32-.94,0-1.69-.27-2.23-.81-.54-.54-.81-1.31-.81-2.3s.36-1.81,1.09-2.3c.73-.5,1.83-.77,3.3-.83l1.71-.05v-.43c0-1-.51-1.49-1.53-1.49-.79,0-1.71.24-2.77.71l-.89-1.81c1.13-.59,2.38-.89,3.76-.89s2.33.29,3.03.86c.7.57,1.05,1.45,1.05,2.62v6.55h-1.87ZM33.9,101.22l-1.04.03c-.78.02-1.36.16-1.74.42-.38.26-.57.65-.57,1.18,0,.76.43,1.13,1.3,1.13.62,0,1.12-.18,1.49-.54.38-.36.56-.83.56-1.42v-.81Z" fill="#0f1014"/>
  <path d="M16.57,92.92h4c1.82,0,3.14.26,3.96.78.83.52,1.24,1.34,1.24,2.47,0,.77-.18,1.4-.54,1.89-.36.49-.83.79-1.43.89v.09c.81.18,1.4.52,1.76,1.02.36.5.55,1.16.55,1.99,0,1.17-.42,2.09-1.27,2.74-.84.66-1.99.98-3.45.98h-4.81v-12.85ZM19.29,98.01h1.58c.74,0,1.27-.11,1.6-.34.33-.23.5-.61.5-1.13,0-.49-.18-.84-.54-1.05-.36-.22-.93-.33-1.71-.33h-1.43v2.86ZM19.29,100.17v3.35h1.78c.75,0,1.3-.14,1.66-.43.36-.29.54-.73.54-1.32,0-1.07-.76-1.6-2.29-1.6h-1.69Z" fill="#0f1014"/>
  <path d="M106.1,77.84c0,.97.16,1.71.48,2.21.32.5.84.75,1.56.75s1.23-.25,1.54-.74c.32-.5.47-1.24.47-2.21s-.16-1.7-.47-2.19c-.32-.49-.83-.73-1.56-.73s-1.23.24-1.55.73c-.32.48-.48,1.21-.48,2.19ZM112.9,77.84c0,1.6-.42,2.85-1.26,3.75-.84.9-2.02,1.35-3.53,1.35-.94,0-1.78-.2-2.5-.62-.72-.42-1.27-1.01-1.66-1.78-.39-.77-.58-1.68-.58-2.71,0-1.61.42-2.85,1.26-3.74.84-.89,2.02-1.34,3.53-1.34.94,0,1.78.21,2.5.62.72.41,1.28,1,1.66,1.77.39.77.58,1.67.58,2.7Z" fill="#0f1014"/>
  <path d="M95.69,82.95c-1.15,0-2.06-.45-2.72-1.34-.66-.9-.98-2.14-.98-3.73s.33-2.87,1-3.76c.67-.9,1.6-1.35,2.78-1.35,1.24,0,2.18.48,2.83,1.44h.09c-.13-.73-.2-1.39-.2-1.96v-3.15h2.69v13.68h-2.06l-.52-1.27h-.11c-.61.97-1.54,1.45-2.79,1.45ZM96.63,80.81c.69,0,1.19-.2,1.5-.6.32-.4.5-1.08.53-2.03v-.29c0-1.05-.16-1.81-.49-2.27-.32-.46-.85-.69-1.58-.69-.6,0-1.06.25-1.4.76-.33.5-.49,1.24-.49,2.21s.17,1.69.5,2.18c.33.48.81.72,1.43.72Z" fill="#0f1014"/>
  <path d="M87.94,82.77l-.52-1.34h-.07c-.45.57-.92.96-1.4,1.19-.47.22-1.1.33-1.86.33-.94,0-1.69-.27-2.23-.81-.54-.54-.81-1.31-.81-2.3s.36-1.81,1.09-2.3c.73-.5,1.83-.77,3.3-.83l1.71-.05v-.43c0-1-.51-1.49-1.53-1.49-.79,0-1.71.24-2.77.71l-.89-1.81c1.13-.59,2.38-.89,3.76-.89s2.33.29,3.03.86c.7.57,1.05,1.45,1.05,2.62v6.55h-1.87ZM87.15,78.22l-1.04.04c-.78.02-1.36.16-1.74.42-.38.26-.57.65-.57,1.18,0,.76.43,1.13,1.3,1.13.62,0,1.12-.18,1.49-.54.38-.36.56-.83.56-1.42v-.81Z" fill="#0f1014"/>
  <path d="M76.42,82.95c-3.06,0-4.59-1.68-4.59-5.04,0-1.67.42-2.94,1.25-3.82.83-.88,2.02-1.33,3.58-1.33,1.14,0,2.16.22,3.06.67l-.79,2.07c-.42-.17-.81-.31-1.18-.41-.36-.11-.73-.17-1.09-.17-1.39,0-2.09.99-2.09,2.97s.7,2.88,2.09,2.88c.52,0,.99-.07,1.43-.2.44-.14.88-.36,1.32-.65v2.29c-.43.28-.87.47-1.32.57-.44.11-1,.16-1.67.16Z" fill="#0f1014"/>
  <path d="M65.4,74.96h-2.32v7.81h-2.68v-7.81h-1.48v-1.29l1.48-.72v-.72c0-1.12.28-1.94.83-2.45.55-.52,1.43-.77,2.65-.77.93,0,1.75.14,2.47.41l-.69,1.97c-.54-.17-1.04-.25-1.49-.25-.38,0-.66.11-.83.34-.17.22-.25.51-.25.86v.62h2.32v2.01ZM66.83,70.41c0-.87.49-1.31,1.46-1.31s1.46.44,1.46,1.31c0,.42-.12.74-.37.98-.24.23-.6.34-1.09.34-.97,0-1.46-.44-1.46-1.32ZM69.62,82.77h-2.68v-9.83h2.68v9.83Z" fill="#0f1014"/>
  <path d="M54.36,70.41c0-.87.49-1.31,1.46-1.31s1.46.44,1.46,1.31c0,.42-.12.74-.37.98-.24.23-.6.34-1.09.34-.97,0-1.46-.44-1.46-1.32ZM57.15,82.77h-2.68v-9.83h2.68v9.83Z" fill="#0f1014"/>
  <path d="M50.79,80.81c.47,0,1.03-.1,1.69-.31v2c-.67.3-1.49.45-2.46.45-1.07,0-1.85-.27-2.35-.81-.49-.54-.73-1.36-.73-2.44v-4.74h-1.28v-1.13l1.48-.9.77-2.07h1.71v2.09h2.75v2.01h-2.75v4.74c0,.38.11.66.32.84.22.18.5.27.85.27Z" fill="#0f1014"/>
  <path d="M43.96,72.76c.36,0,.67.03.91.08l-.2,2.51c-.22-.06-.48-.09-.79-.09-.86,0-1.52.22-2,.66-.47.44-.71,1.05-.71,1.85v5h-2.68v-9.83h2.03l.4,1.65h.13c.3-.55.71-.99,1.23-1.33.52-.34,1.09-.51,1.7-.51Z" fill="#0f1014"/>
  <path d="M31.91,74.67c-.57,0-1.01.18-1.34.54-.32.36-.51.87-.55,1.53h3.76c-.01-.66-.18-1.17-.52-1.53-.33-.36-.79-.54-1.35-.54ZM32.29,82.95c-1.58,0-2.82-.44-3.71-1.31-.89-.87-1.34-2.11-1.34-3.71s.41-2.92,1.23-3.81c.83-.9,1.97-1.35,3.42-1.35s2.47.4,3.24,1.19c.77.79,1.16,1.88,1.16,3.28v1.3h-6.34c.03.76.25,1.36.68,1.78.42.43,1.01.64,1.78.64.59,0,1.15-.06,1.68-.18.53-.12,1.08-.32,1.65-.59v2.07c-.47.23-.97.41-1.5.52-.53.12-1.18.18-1.95.18Z" fill="#0f1014"/>
  <path d="M22.03,72.01c-1.03,0-1.82.39-2.38,1.16-.56.77-.84,1.84-.84,3.22,0,2.87,1.08,4.3,3.23,4.3.9,0,2-.23,3.28-.68v2.29c-1.05.44-2.23.66-3.53.66-1.87,0-3.3-.57-4.29-1.7-.99-1.14-1.49-2.77-1.49-4.89,0-1.34.24-2.5.73-3.51.49-1.01,1.18-1.78,2.09-2.31.91-.54,1.98-.81,3.21-.81s2.5.3,3.76.91l-.88,2.21c-.48-.23-.96-.43-1.45-.6-.49-.17-.96-.25-1.43-.25Z" fill="#0f1014"/>
  <g>
    <rect x="24.99" y="21.99" width="29.1" height="39.01" fill="#ffe9d4"/>
    <path d="M45.82,23.79h-18.48c-.43,0-.78-.35-.78-.78s.35-.78.78-.78h18.48c.43,0,.78.35.78.78s-.35.78-.78.78Z" fill="url(#Degradado_sin_nombre_9)"/>
    <path d="M45.82,28.67h-18.48c-.43,0-.78-.35-.78-.78s.35-.78.78-.78h18.48c.43,0,.78.35.78.78s-.35.78-.78.78Z" fill="url(#Degradado_sin_nombre_9-2)"/>
    <path d="M45.82,33.55h-18.48c-.43,0-.78-.35-.78-.78s.35-.78.78-.78h18.48c.43,0,.78.35.78.78s-.35.78-.78.78Z" fill="url(#Degradado_sin_nombre_9-3)"/>
    <path d="M45.82,38.44h-18.48c-.43,0-.78-.35-.78-.78s.35-.78.78-.78h18.48c.43,0,.78.35.78.78s-.35.78-.78.78Z" fill="url(#Degradado_sin_nombre_9-4)"/>
    <path d="M46.21,43.32h-9.46c-.43,0-.78-.35-.78-.78s.35-.78.78-.78h9.46c.43,0,.78.35.78.78s-.35.78-.78.78Z" fill="url(#Degradado_sin_nombre_9-5)"/>
    <path d="M46.21,48.21h-9.46c-.43,0-.78-.35-.78-.78s.35-.78.78-.78h9.46c.43,0,.78.35.78.78s-.35.78-.78.78Z" fill="url(#Degradado_sin_nombre_9-6)"/>
    <path d="M50.67,57.9h-22.42c-.38,0-.69-.31-.69-.69s.31-.69.69-.69h21.73l.17-38.86h-27.29v13.86c0,.38-.31.69-.69.69s-.69-.31-.69-.69v-14.55c0-.38.31-.69.69-.69h28.68c.18,0,.36.07.49.2.13.13.2.31.2.49l-.17,40.24c0,.38-.31.69-.69.69Z" fill="url(#Degradado_sin_nombre_9-7)"/>
    <path d="M22.14,49.79c-.38,0-.69-.31-.69-.69v-13.84c0-.38.31-.69.69-.69s.69.31.69.69v13.84c0,.38-.31.69-.69.69Z"/>
    <path d="M22.14,53.37c-.16,0-.32-.06-.45-.17l-5.53-4.72c-.29-.25-.33-.69-.08-.98.25-.29.69-.33.98-.08l5.09,4.34,5.09-4.34c.29-.25.73-.21.98.08.25.29.21.73-.08.98l-5.54,4.72c-.13.11-.29.17-.45.17Z"/>
    <path d="M24.87,55.93h-5.29c-.38,0-.69-.31-.69-.69s.31-.69.69-.69h5.29c.38,0,.69.31.69.69s-.31.69-.69.69Z"/>
    <path d="M23.97,57.89h-3.58c-.2,0-.37-.17-.37-.37s.17-.37.37-.37h3.58c.2,0,.37.17.37.37s-.17.37-.37.37Z"/>
  </g>
</svg>